# xmcd
#
# Track frame offsets:
#	150
#	21750
#	48822
#	74001
#	93542
#	111779
#	129298
#	156265
#	179234
#	200726
#	229528
#	251461
#	273899
#	292043
#	313543
#	332489
#
# Disc length: 4653 seconds
#
# Revision: 0
# Processed by: cddbd v1.5.2PL0 Copyright (c) Steve Scherf et al.
# Submitted via: EasyCDDAExtractor 15.1.0.1
#
DISCID=e7122b10
DTITLE=Mk Publicita - Mk 20 Anos (Disco 2)
DYEAR=2007
DGENRE=Gospel
TTITLE0=Alda Celia - Voar Como A Aguia
TTITLE1=Bruna Karla - Digno Eh O Cordeiro
TTITLE2=Alex Gonzaga - Autor Da Minha Fe
TTITLE3=Liz Lanne - Milagre
TTITLE4=Ellas - Abc
TTITLE5=Pamela - A Chuva
TTITLE6=Igreja Batista Nova Jerusalem - Tua Uncao
TTITLE7=Quatro Por Um - Cinco Paes E Dois Peixinhos
TTITLE8=Pg - Posso Ouvir
TTITLE9=Aline Barros - Sonda-Me, Usa-Me
TTITLE10=Andrea Fontes - Batismo No Onibus
TTITLE11=Ministerio Uncao Agape - Derrama A Tua Gloria
TTITLE12=Marquinhos Menezes E Lilian - Fala Comigo, Senhor
TTITLE13=Ministerio Sarando A Terra Ferida De Nova Iguacu - Seja Adorado
TTITLE14=Melosweet - Providencia
TTITLE15=Tempero Do Mundo - Cuida De Mim
EXTD=
EXTT0=
EXTT1=
EXTT2=
EXTT3=
EXTT4=
EXTT5=
EXTT6=
EXTT7=
EXTT8=
EXTT9=
EXTT10=
EXTT11=
EXTT12=
EXTT13=
EXTT14=
EXTT15=
PLAYORDER=
